<svg width="40" height="40" viewBox="0 0 40 40" fill="none" xmlns="http://www.w3.org/2000/svg">
<path d="M24.5273 7.67969C20.2301 7.67969 16.7344 11.1754 16.7344 15.4727C16.7344 19.7699 20.2301 23.2656 24.5273 23.2656C28.8246 23.2656 32.3203 19.7699 32.3203 15.4727C32.3203 11.1754 28.8246 7.67969 24.5273 7.67969ZM29.7679 14.0336L24.2015 19.6C23.7693 20.0323 23.0631 20.0365 22.6266 19.6L19.2868 16.2601C18.8526 15.8252 18.8526 15.1201 19.2868 14.6852C19.7217 14.251 20.4268 14.251 20.8617 14.6852L23.4141 17.2383L28.193 12.4586C28.6279 12.0245 29.333 12.0245 29.7679 12.4586C30.2021 12.8936 30.2021 13.5986 29.7679 14.0336Z" fill="#FFAD01"/>
<path d="M24.5271 1C16.5471 1 10.0545 7.49264 10.0545 15.4726C10.0545 19.0626 11.3689 22.3519 13.5413 24.8835L13.5415 24.8838L11.7079 26.7174L10.9206 25.93C10.4864 25.4951 9.78062 25.4958 9.34644 25.93L1.32563 33.9508C0.891455 34.3858 0.891455 35.0901 1.32563 35.525L4.47473 38.6741C4.90965 39.109 5.61473 39.1083 6.04891 38.6741L14.0697 30.6533C14.5046 30.2184 14.5046 29.514 14.0697 29.0791L13.2823 28.2917L15.1159 26.4582L15.1162 26.4584C17.6478 28.6308 20.9372 29.9452 24.5271 29.9452C32.5071 29.9452 38.9997 23.4525 38.9997 15.4726C38.9997 7.49257 32.5071 1 24.5271 1ZM24.5271 25.4921C19.0023 25.4921 14.5076 20.9975 14.5076 15.4726C14.5076 9.94779 19.0023 5.45312 24.5271 5.45312C30.0519 5.45312 34.5466 9.94779 34.5466 15.4726C34.5466 20.9975 30.0519 25.4921 24.5271 25.4921Z" fill="#FFAD01"/>
</svg>
