<svg width="40" height="40" viewBox="0 0 40 40" fill="none" xmlns="http://www.w3.org/2000/svg">
<path d="M19.8381 12.7607C15.8456 12.7607 12.5977 16.0087 12.5977 20.0008C12.5977 23.9933 15.8456 27.2412 19.8381 27.2412C23.8303 27.2412 27.0781 23.9933 27.0781 20.0009C27.0781 16.0086 23.8303 12.7607 19.8381 12.7607ZM24.1367 18.6374L18.9497 23.8242C18.8463 23.928 18.7234 24.0102 18.5881 24.0663C18.4527 24.1224 18.3077 24.1512 18.1612 24.151C18.0147 24.1512 17.8697 24.1224 17.7344 24.0664C17.5991 24.0103 17.4763 23.928 17.373 23.8242L15.3907 21.8421C14.9553 21.4069 14.9553 20.701 15.3907 20.2655C15.8259 19.8301 16.5318 19.8301 16.9673 20.2655L18.1612 21.4594L22.5601 17.0608C22.9953 16.6253 23.7012 16.6253 24.1367 17.0608C24.5721 17.496 24.5721 18.2019 24.1367 18.6374Z" fill="#FFAD01"/>
<path d="M35.98 11.3104L35.9789 11.2808C35.9616 10.8874 35.9502 10.4938 35.9447 10.1C35.9136 8.00473 34.248 6.27158 32.1525 6.15454C27.7835 5.91065 24.4037 4.48603 21.5158 1.67121L21.4912 1.64776C20.5492 0.78408 19.1284 0.78408 18.1861 1.64776L18.1614 1.67121C15.2736 4.48603 11.8938 5.91066 7.52472 6.15476C5.42953 6.27158 3.76362 8.00481 3.7326 10.1002C3.72715 10.4939 3.71577 10.8875 3.69846 11.2808L3.69668 11.3495C3.6117 15.8047 3.50616 21.3493 5.36103 26.3819C6.38102 29.1495 7.92565 31.5552 9.9519 33.5327C12.2596 35.7848 15.2823 37.5728 18.9358 38.8466C19.0561 38.8885 19.1791 38.922 19.304 38.9469C19.4814 38.9823 19.6601 39 19.8386 39C20.0172 39 20.1961 38.9823 20.3732 38.9469C20.4986 38.9218 20.6221 38.8881 20.7428 38.846C24.392 37.5698 27.4115 35.781 29.7172 33.5293C31.7426 31.5512 33.2873 29.1449 34.3081 26.3767C36.1699 21.329 36.0647 15.7739 35.98 11.3104ZM19.838 29.4707C14.616 29.4707 10.3679 25.2226 10.3679 20.0006C10.3679 14.7786 14.6161 10.5305 19.838 10.5305C25.0598 10.5305 29.3082 14.7786 29.3082 20.0006C29.3082 25.2226 25.0598 29.4707 19.838 29.4707Z" fill="#FFAD01"/>
</svg>
